<svg width="63px" height="62px" viewBox="0 0 63 62" version="1.1" xmlns="http://www.w3.org/2000/svg" xmlns:xlink="http://www.w3.org/1999/xlink">
    <g id="Web" stroke="none" stroke-width="1" fill="none" fill-rule="evenodd">
        <g id="Homepage" transform="translate(-269, -25)" fill-rule="nonzero">
            <g id="Group" transform="translate(269, 25)">
                <rect id="Rectangle" fill="#0C5BA1" x="0" y="0" width="63" height="62" rx="3"></rect>
                <rect id="Rectangle" fill="#FFFFFF" x="3" y="3" width="57" height="56" rx="2"></rect>
                <polygon id="Path" fill="#0C5BA1" points="3 29 60 29 60 32 3 32"></polygon>
                <polygon id="Path" fill="#0C5BA1" points="30 2 33 2 33 60 30 60"></polygon>
                <polygon id="Path" fill="#0C5BA1" points="14 8 20 8 20 17 14 17"></polygon>
                <polygon id="Path" fill="#0C5BA1" points="43 3 49 3 49 12 43 12"></polygon>
                <polygon id="Path" fill="#0C5BA1" points="43 22 49 22 49 31 43 31"></polygon>
                <polygon id="Path" fill="#0C5BA1" points="43 32 49 32 49 41 43 41"></polygon>
                <polygon id="Path" fill="#0C5BA1" points="43 51 49 51 49 60 43 60"></polygon>
                <polygon id="Path" fill="#0C5BA1" points="14 21 20 21 20 30 14 30"></polygon>
                <polygon id="Path" fill="#0C5BA1" points="14 39 20 39 20 48 14 48"></polygon>
                <polygon id="Path" fill="#0C5BA1" points="46.0001527 45 49 41 43 41"></polygon>
                <polygon id="Path" fill="#0C5BA1" points="14 51 20 51 20 60 14 60"></polygon>
                <polygon id="Path" fill="#FFFFFF" points="45.9998473 54 49 50 43 50"></polygon>
            </g>
        </g>
    </g>
</svg>