<svg width="186px" height="55px" viewBox="0 0 186 55" version="1.1" xmlns="http://www.w3.org/2000/svg" xmlns:xlink="http://www.w3.org/1999/xlink">
    <defs>
        <linearGradient x1="61.6308591%" y1="4.96190818%" x2="25.2421423%" y2="71.8998046%" id="linearGradient-g46rqrky0w-1">
            <stop stop-color="#00A0FF" offset="0%"></stop>
            <stop stop-color="#00A1FF" offset="0.7%"></stop>
            <stop stop-color="#00BEFF" offset="26%"></stop>
            <stop stop-color="#00D2FF" offset="51.2%"></stop>
            <stop stop-color="#00DFFF" offset="76%"></stop>
            <stop stop-color="#00E3FF" offset="100%"></stop>
        </linearGradient>
        <linearGradient x1="107.588243%" y1="49.9941541%" x2="-130.473496%" y2="49.9941541%" id="linearGradient-g46rqrky0w-2">
            <stop stop-color="#FFE000" offset="0%"></stop>
            <stop stop-color="#FFBD00" offset="40.9%"></stop>
            <stop stop-color="#FFA500" offset="77.5%"></stop>
            <stop stop-color="#FF9C00" offset="100%"></stop>
        </linearGradient>
        <linearGradient x1="86.2519477%" y1="30.3011162%" x2="-50.1378401%" y2="138.683708%" id="linearGradient-g46rqrky0w-3">
            <stop stop-color="#FF3A44" offset="0%"></stop>
            <stop stop-color="#C31162" offset="100%"></stop>
        </linearGradient>
        <linearGradient x1="-18.8121779%" y1="-13.7925163%" x2="42.0951696%" y2="34.6014509%" id="linearGradient-g46rqrky0w-4">
            <stop stop-color="#32A071" offset="0%"></stop>
            <stop stop-color="#2DA771" offset="6.9%"></stop>
            <stop stop-color="#15CF74" offset="47.6%"></stop>
            <stop stop-color="#06E775" offset="80.1%"></stop>
            <stop stop-color="#00F076" offset="100%"></stop>
        </linearGradient>
    </defs>
    <g id="Symbols" stroke="none" stroke-width="1" fill="none" fill-rule="evenodd">
        <g id="Footer" transform="translate(-1006, -204)" fill-rule="nonzero">
            <g id="Group" transform="translate(1006, 204)">
                <path d="M179.111111,55 L6.88888889,55 C3.1,55 0,51.90625 0,48.125 L0,6.875 C0,3.09375 3.1,0 6.88888889,0 L179.111111,0 C182.9,0 186,3.09375 186,6.875 L186,48.125 C186,51.90625 182.9,55 179.111111,55 Z" id="Path" fill="#000000"></path>
                <path d="M179.111111,1.1 C182.302044,1.1 184.897778,3.6905 184.897778,6.875 L184.897778,48.125 C184.897778,51.3095 182.302044,53.9 179.111111,53.9 L6.88888889,53.9 C3.6945748,53.8962117 1.1060182,51.3128739 1.10222222,48.125 L1.10222222,6.875 C1.10222222,3.6905 3.69795556,1.1 6.88888889,1.1 L179.111111,1.1 M179.111111,0 L6.88888889,0 C3.1,0 0,3.09375 0,6.875 L0,48.125 C0,51.90625 3.1,55 6.88888889,55 L179.111111,55 C182.9,55 186,51.90625 186,48.125 L186,6.875 C186,3.09375 182.9,0 179.111111,0 Z" id="Shape" fill="#A6A6A6"></path>
                <path d="M65.2757928,13.8495773 C65.2757928,15.05264 64.9374485,16.010209 64.2593956,16.7251555 C63.4899351,17.5750518 62.4858165,18 61.2524969,18 C60.0710204,18 59.0655375,17.5693093 58.2401411,16.7079279 C57.4133804,15.8451109 57,14.7769979 57,13.5021535 C57,12.2258733 57.4133804,11.1577604 58.2401411,10.296379 C59.0655375,9.43356197 60.0710204,9.00287127 61.2524969,9.00287127 C61.8391423,9.00287127 62.3998661,9.12346467 62.9319399,9.36321582 C63.4653779,9.60440262 63.8924012,9.92454937 64.2116454,10.3250917 L63.4926637,11.0831074 C62.95104,10.4011804 62.2047724,10.0609348 61.2511326,10.0609348 C60.3889003,10.0609348 59.6439971,10.3796459 59.0150587,11.0170681 C58.3861203,11.6544903 58.0736975,12.4828521 58.0736975,13.5007178 C58.0736975,14.5185835 58.3874846,15.3469453 59.016423,15.9843675 C59.6453614,16.6217898 60.3902646,16.9405009 61.2524969,16.9405009 C62.1665723,16.9405009 62.9292113,16.6203541 63.5390496,15.978625 C63.9346942,15.560855 64.1638952,14.9794226 64.2252883,14.2343276 L61.2524969,14.2343276 L61.2524969,13.20067 L65.2184926,13.20067 C65.258057,13.4246291 65.2757928,13.6414101 65.2757928,13.8495773 L65.2757928,13.8495773 Z M71.5651771,10.2518743 L67.8379325,10.2518743 L67.8379325,12.983889 L71.199547,12.983889 L71.199547,14.0189823 L67.8379325,14.0189823 L67.8379325,16.7495613 L71.5651771,16.7495613 L71.5651771,17.8076248 L66.7860636,17.8076248 L66.7860636,9.19381082 L71.5651771,9.19381082 L71.5651771,10.2518743 Z M76.0004891,17.8076248 L74.9486203,17.8076248 L74.9486203,10.2518743 L72.6620675,10.2518743 L72.6620675,9.19381082 L78.2870418,9.19381082 L78.2870418,10.2518743 L76.0004891,10.2518743 L76.0004891,17.8076248 L76.0004891,17.8076248 Z M82.3567236,17.8076248 L82.3567236,9.19381082 L83.4085925,9.19381082 L83.4085925,17.8076248 L82.3567236,17.8076248 Z M88.0731054,17.8076248 L87.0212366,17.8076248 L87.0212366,10.2518743 L84.7346839,10.2518743 L84.7346839,9.19381082 L90.3596582,9.19381082 L90.3596582,10.2518743 L88.0731054,10.2518743 L88.0731054,17.8076248 Z M101.007954,16.6950072 C100.203022,17.5650024 99.2029963,18 98.0065126,18 C96.8100288,18 95.8100031,17.5650024 95.0064353,16.6950072 C94.2015033,15.825012 93.8004016,14.7597703 93.8004016,13.5007178 C93.8004016,12.2416653 94.2015033,11.1764237 95.0064353,10.3064285 C95.8100031,9.43643324 96.8100288,9 98.0065126,9 C99.1961748,9 100.194836,9.43786888 101.002497,10.312171 C101.810158,11.1864731 102.213988,12.2488435 102.213988,13.5007178 C102.213988,14.7597703 101.811522,15.825012 101.007954,16.6950072 Z M95.7827173,15.9728824 C96.3884627,16.6189185 97.1292731,16.9405009 98.0065126,16.9405009 C98.8837521,16.9405009 99.6259267,16.6174829 100.230308,15.9728824 C100.836053,15.3268464 101.14029,14.5027915 101.14029,13.5007178 C101.14029,12.4986441 100.836053,11.6745892 100.230308,11.0285532 C99.6259267,10.3825171 98.8837521,10.0609348 98.0065126,10.0609348 C97.1292731,10.0609348 96.3884627,10.3839528 95.7827173,11.0285532 C95.1783361,11.6745892 94.8740991,12.4986441 94.8740991,13.5007178 C94.8740991,14.5027915 95.1783361,15.3268464 95.7827173,15.9728824 Z M103.690151,17.8076248 L103.690151,9.19381082 L104.969857,9.19381082 L108.948131,15.8939225 L108.993153,15.8939225 L108.948131,14.2343276 L108.948131,9.19381082 L110,9.19381082 L110,17.8076248 L108.901745,17.8076248 L104.739292,10.7816239 L104.69427,10.7816239 L104.739292,12.4412187 L104.739292,17.8076248 L103.690151,17.8076248 L103.690151,17.8076248 Z" id="Shape" stroke="#FFFFFF" stroke-width="0.2" fill="#FFFFFF"></path>
                <path d="M93.3926347,30.3530241 C90.1466217,30.3530241 87.5009555,32.769172 87.5009555,36.0969466 C87.5009555,39.4044627 90.1466217,41.8408691 93.3926347,41.8408691 C96.6400278,41.8408691 99.2856941,39.4044627 99.2856941,36.0969466 C99.284314,32.769172 96.6386477,30.3530241 93.3926347,30.3530241 Z M93.3926347,39.5800352 C91.613676,39.5800352 90.0803765,38.1443922 90.0803765,36.0982971 C90.0803765,34.0305931 91.6150561,32.616559 93.3926347,32.616559 C95.1715934,32.616559 96.7048929,34.0305931 96.7048929,36.0982971 C96.7048929,38.1430417 95.1715934,39.5800352 93.3926347,39.5800352 Z M80.5383127,30.3530241 C77.2922997,30.3530241 74.6466335,32.769172 74.6466335,36.0969466 C74.6466335,39.4044627 77.2922997,41.8408691 80.5383127,41.8408691 C83.7857059,41.8408691 86.4313721,39.4044627 86.4313721,36.0969466 C86.4313721,32.769172 83.7857059,30.3530241 80.5383127,30.3530241 L80.5383127,30.3530241 Z M80.5383127,39.5800352 C78.7593541,39.5800352 77.2260545,38.1443922 77.2260545,36.0982971 C77.2260545,34.0305931 78.7607342,32.616559 80.5383127,32.616559 C82.3172714,32.616559 83.8505718,34.0305931 83.8505718,36.0982971 C83.851951,38.1430417 82.3172714,39.5800352 80.5383127,39.5800352 Z M65.249481,32.1168526 L65.249481,34.553259 L71.2087855,34.553259 C71.0307516,35.9240752 70.5642753,36.9248385 69.8521398,37.6203758 C68.9854322,38.4685261 67.6287864,39.4044627 65.249481,39.4044627 C61.581155,39.4044627 58.7132915,36.5102173 58.7132915,32.9204345 C58.7132915,29.3306518 61.581155,26.4364063 65.249481,26.4364063 C67.2285553,26.4364063 68.6735279,27.198121 69.740351,28.1772754 L71.497228,26.4580153 C70.0067118,25.0655901 68.0290176,24 65.249481,24 C60.2245093,24 56,28.0030534 56,32.9204345 C56,37.8378156 60.2245093,41.8408691 65.249481,41.8408691 C67.9613924,41.8408691 70.0080919,40.9697592 71.6076366,39.3382854 C73.2527248,37.7284204 73.7647447,35.4648855 73.7647447,33.6375807 C73.7647447,33.0730476 73.7205813,32.5503817 73.6308743,32.1155021 L65.249481,32.1155021 L65.249481,32.1168526 Z M127.779395,34.0089841 C127.290837,32.7259542 125.800321,30.3530241 122.754423,30.3530241 C119.730608,30.3530241 117.217432,32.6813858 117.217432,36.0969466 C117.217432,39.3166765 119.708526,41.8408691 123.042866,41.8408691 C125.732696,41.8408691 127.289457,40.2310041 127.935347,39.2950675 L125.934191,37.9890781 C125.267599,38.9466236 124.355348,39.5773341 123.042866,39.5773341 C121.731764,39.5773341 120.797431,38.9898415 120.197084,37.8364651 L128.045756,34.659953 L127.779395,34.0089841 L127.779395,34.0089841 Z M119.774771,35.9240752 C119.708526,33.7037581 121.531648,32.5733412 122.84413,32.5733412 C123.86679,32.5733412 124.733498,33.0743981 125.02332,33.7915443 L119.774771,35.9240752 L119.774771,35.9240752 Z M113.394534,41.4937757 L115.972575,41.4937757 L115.972575,24.6104521 L113.394534,24.6104521 L113.394534,41.4937757 Z M109.168644,31.6374046 L109.080318,31.6374046 C108.502052,30.9621257 107.389686,30.3530241 105.990257,30.3530241 C103.054768,30.3530241 100.364938,32.8772167 100.364938,36.119906 C100.364938,39.3396359 103.054768,41.8422196 105.990257,41.8422196 C107.391066,41.8422196 108.502052,41.233118 109.080318,40.5375807 L109.168644,40.5375807 L109.168644,41.3641221 C109.168644,43.5614797 107.967951,44.7364651 106.03442,44.7364651 C104.455577,44.7364651 103.477081,43.6276571 103.07685,42.6917205 L100.831415,43.6060482 C101.475925,45.1281268 103.187258,47 106.03442,47 C109.058236,47 111.615575,45.2591309 111.615575,41.0156782 L111.615575,30.7028186 L109.170025,30.7028186 L109.170025,31.6374046 L109.168644,31.6374046 Z M106.212454,39.5800352 C104.433495,39.5800352 102.944359,38.1214328 102.944359,36.119906 C102.944359,34.0954198 104.433495,32.616559 106.212454,32.616559 C107.967951,32.616559 109.346678,34.0954198 109.346678,36.119906 C109.346678,38.1214328 107.967951,39.5800352 106.212454,39.5800352 Z M139.860857,24.6104521 L133.690396,24.6104521 L133.690396,41.4937757 L136.264296,41.4937757 L136.264296,35.0975338 L139.859477,35.0975338 C142.713539,35.0975338 145.520678,33.0757487 145.520678,29.8546682 C145.520678,26.6335878 142.714919,24.6104521 139.860857,24.6104521 Z M139.927102,32.7475631 L136.264296,32.7475631 L136.264296,26.9604228 L139.927102,26.9604228 C141.852352,26.9604228 142.945397,28.5203171 142.945397,29.8546682 C142.945397,31.1620082 141.852352,32.7475631 139.927102,32.7475631 L139.927102,32.7475631 Z M155.842503,30.3233118 C153.977977,30.3233118 152.047207,31.1268937 151.248124,32.9082795 L153.533583,33.841515 C154.022141,32.9082795 154.933012,32.6030534 155.886666,32.6030534 C157.21847,32.6030534 158.572355,33.3850264 158.594437,34.7747504 L158.594437,34.9489724 C158.127961,34.6883147 157.128763,34.2980035 155.908748,34.2980035 C153.445256,34.2980035 150.93622,35.6229008 150.93622,38.0984733 C150.93622,40.3579565 152.956698,41.8125073 155.220074,41.8125073 C156.950729,41.8125073 157.905763,41.0521433 158.50473,40.1607751 L158.593057,40.1607751 L158.593057,41.4640634 L161.080011,41.4640634 L161.080011,34.9908397 C161.081391,31.9953024 158.793173,30.3233118 155.842503,30.3233118 L155.842503,30.3233118 Z M155.530598,39.5759836 C154.688733,39.5759836 153.511501,39.1627129 153.511501,38.1416911 C153.511501,36.8384028 154.977175,36.3386964 156.242734,36.3386964 C157.373042,36.3386964 157.907144,36.5777452 158.594437,36.9032296 C158.399299,38.4182755 157.090953,39.5596173 155.530598,39.5759836 L155.530598,39.5759836 Z M170.136277,30.6920141 L167.184227,38.0120376 L167.0959,38.0120376 L164.032061,30.6920141 L161.258045,30.6920141 L165.852423,40.9224897 L163.232979,46.6137405 L165.918668,46.6137405 L173,30.6920141 L170.136277,30.6920141 L170.136277,30.6920141 Z M146.942189,41.4937757 L149.516089,41.4937757 L149.516089,24.6104521 L146.942189,24.6104521 L146.942189,41.4937757 Z" id="Shape" fill="#FFFFFF"></path>
                <path d="M14.644747,11.0989988 C14.2395173,11.5166926 14,12.1649316 14,13.0043875 L14,42.9969686 C14,43.8377807 14.2395173,44.4846636 14.644747,44.9023573 L14.7477951,45 L32,28.1986758 L32,27.8026804 L14.7464026,11 L14.644747,11.0989988 Z" id="Path" fill="url(#linearGradient-g46rqrky0w-1)"></path>
                <path d="M36.6874677,34 L31,28.2041389 L31,27.7944581 L36.6888452,22 L36.8169475,22.0743599 L43.5567827,25.9747457 C45.4810724,27.0887408 45.4810724,28.9112592 43.5567827,30.0266573 L36.8169475,33.9270431 L36.6874677,34 Z" id="Path" fill="url(#linearGradient-g46rqrky0w-2)"></path>
                <path d="M37,32.911974 L31.1776339,27 L14,44.4434025 C14.6340645,45.1264146 15.6830277,45.2103915 16.8643174,44.5301786 L37,32.911974" id="Path" fill="url(#linearGradient-g46rqrky0w-3)"></path>
                <path d="M37,22.0868089 L16.8643174,10.4703624 C15.6830277,9.78877093 14.6340645,9.87414481 14,10.5571359 L31.1790123,28 L37,22.0868089 Z" id="Path" fill="url(#linearGradient-g46rqrky0w-4)"></path>
                <path d="M36.8718087,33 L16.8643174,44.3370772 C15.7450557,44.9707329 14.7443366,44.9281227 14.1020017,44.352197 L14,44.4539118 L14.1020017,44.5528775 C14.7443366,45.1301778 15.7450557,45.172788 16.8643174,44.5377578 L37,33.1292053 L36.8718087,33 Z" id="Path" fill="#000000" opacity="0.2"></path>
                <path d="M14.6416631,44.8008345 C14.2383716,44.3806773 14,43.728615 14,42.884208 L14,43.0833735 C14,43.9277805 14.2383716,44.5798427 14.6416631,45 L14.7442183,44.8990531 L14.6416631,44.8008345 Z M44.5475964,29.7692987 L37.637592,33.6339271 L37.766479,33.7607928 L44.5475964,29.9684641 C45.5163274,29.4268978 46,28.7134489 46,28 C45.918233,28.6452415 45.4248592,29.2768416 44.5475964,29.7692987 L44.5475964,29.7692987 Z" id="Shape" fill="#000000" opacity="0.12"></path>
                <path d="M17.5215245,10.6753143 L44.5475964,26.1832734 C45.4262451,26.6871421 45.918233,27.3365729 46,28 C46,27.2679907 45.5163274,26.5345818 44.5475964,25.9789266 L17.5215245,10.4709676 C15.5840624,9.35965716 14,10.2834165 14,12.5228329 L14,12.7271797 C14,10.4877632 15.5840624,9.56400391 17.5215245,10.6753143 Z" id="Path" fill="#FFFFFF" opacity="0.25"></path>
            </g>
        </g>
    </g>
</svg>