<svg width="186px" height="55px" viewBox="0 0 186 55" version="1.1" xmlns="http://www.w3.org/2000/svg" xmlns:xlink="http://www.w3.org/1999/xlink">
    <g id="Symbols" stroke="none" stroke-width="1" fill="none" fill-rule="evenodd">
        <g id="Footer" transform="translate(-1006, -139)" fill-rule="nonzero">
            <g id="Group" transform="translate(1006, 139)">
                <path d="M179.382533,55 L6.51551111,55 C2.91840476,54.991673 0.00530251952,52.0819849 0,48.492125 L0,6.49825 C0.00531645292,2.90995539 2.91996477,0.00302865594 6.51551111,0 L179.382533,0 C182.973022,0 186,2.915 186,6.49825 L186,48.492125 C186,52.074 182.973022,55 179.382533,55 Z" id="Path" fill="#A6A6A6"></path>
                <path d="M184,48.6872356 C184,50.0972294 183.444624,51.4493926 182.4562,52.4458883 C181.467776,53.442384 180.127386,54.0014696 178.730273,54 L6.27659942,54 C3.3659859,54.0030634 1.00379322,51.6246819 1,48.6872356 L1,6.31969715 C1.00379121,3.38112946 3.36487328,1.00076276 6.27659942,1 L178.728898,1 C180.126755,1 181.467339,1.5605107 182.455644,2.55818733 C183.443949,3.55586397 184,4.90895331 184,6.31969715 L184,48.6872356 Z" id="Path" fill="#000000"></path>
                <path d="M41.7774362,27.5868411 C41.7376611,23.171319 45.3969741,21.0231531 45.564304,20.9231428 C43.491882,17.9050245 40.2796964,17.4926534 39.1509054,17.4597733 C36.4530535,17.1761825 33.8361236,19.0722677 32.4618239,19.0722677 C31.060093,19.0722677 28.9437812,17.4871733 26.6628826,17.5337535 C23.7277515,17.5789636 20.9818952,19.2763983 19.4759261,21.9122855 C16.3679788,27.2868103 18.6859095,35.184882 21.6635588,39.529164 C23.1530693,41.6567798 24.8935746,44.0323663 27.1717301,43.9487961 C29.4005096,43.8570059 30.2330444,42.5294722 32.9226669,42.5294722 C35.5876013,42.5294722 36.3693886,43.9487961 38.6928055,43.895366 C41.0848002,43.8570059 42.5907693,41.7581601 44.0281606,39.6113642 C45.7494641,37.1727575 46.4407286,34.7711409 46.4681598,34.6478405 C46.4119259,34.6286605 41.8226976,32.8791657 41.7774362,27.5868411 Z M37.3884551,14.6019454 C38.5871956,13.1045313 39.4073864,11.0673357 39.179708,9 C37.444689,9.07672021 35.2748864,10.1987533 34.0253984,11.6632873 C32.9199238,12.9538309 31.932403,15.0691167 32.1875126,17.0583622 C34.1364945,17.2035826 36.1375955,16.0760695 37.3884551,14.6019454 L37.3884551,14.6019454 Z M74.0323326,43.6432853 L70.9175275,43.6432853 L69.2113111,38.2879405 L63.2807004,38.2879405 L61.6554059,43.6432853 L58.6228943,43.6432853 L64.4986427,25.4112751 L68.1277814,25.4112751 L74.0323326,43.6432853 Z M68.6969774,36.0411344 L67.1539763,31.2803713 C66.990761,30.7940199 66.6849039,29.6486968 66.2336618,27.8457718 L66.1787995,27.8457718 C65.9051862,28.9944437 65.6162192,30.1394124 65.3119758,31.2803713 L63.7964057,36.0411344 L68.6969774,36.0411344 L68.6969774,36.0411344 Z M89.1427715,36.9083467 C89.1427715,39.1441929 88.5379151,40.9114978 87.3282021,42.2088913 C86.2446724,43.3638045 84.8991754,43.9405761 83.2930827,43.9405761 C81.5594351,43.9405761 80.3140617,43.3185944 79.5555909,42.074631 L79.5007287,42.074631 L79.5007287,49 L76.57657,49 L76.57657,34.824571 C76.57657,33.4189472 76.539538,31.9763332 76.4682171,30.4967291 L79.0398857,30.4967291 L79.2031009,32.5805048 L79.2579632,32.5805048 C80.2331399,31.0104805 81.7130495,30.2268384 83.6990634,30.2268384 C85.2516655,30.2268384 86.5477864,30.8392301 87.5846832,32.0653834 C88.6243231,33.2929068 89.1427715,34.9067712 89.1427715,36.9083467 L89.1427715,36.9083467 Z M86.1637506,37.015207 C86.1637506,35.7356235 85.8757237,34.6807206 85.2969268,33.8504983 C84.6646392,32.984656 83.8156457,32.5517348 82.7513178,32.5517348 C82.029879,32.5517348 81.374275,32.7928554 80.7886203,33.2682467 C80.2015941,33.7477481 79.8175583,34.3738398 79.6378843,35.1492619 C79.5473616,35.5109429 79.5021002,35.8068637 79.5021002,36.0397644 L79.5021002,38.2317704 C79.5021002,39.188033 79.7956134,39.9949652 80.3826396,40.653937 C80.9696658,41.3129089 81.7322513,41.6417098 82.670396,41.6417098 C83.7717559,41.6417098 84.6289788,41.2170086 85.2420646,40.3703463 C85.8565219,39.5223139 86.1637506,38.4043909 86.1637506,37.015207 L86.1637506,37.015207 Z M104.280642,36.9083467 C104.280642,39.1441929 103.675785,40.9114978 102.464701,42.2088913 C101.382543,43.3638045 100.037046,43.9405761 98.4309527,43.9405761 C96.6973052,43.9405761 95.4519318,43.3185944 94.6948326,42.074631 L94.6399703,42.074631 L94.6399703,49 L91.7158117,49 L91.7158117,34.824571 C91.7158117,33.4189472 91.6787796,31.9763332 91.6074587,30.4967291 L94.1791273,30.4967291 L94.3423425,32.5805048 L94.3972048,32.5805048 C95.37101,31.0104805 96.8509195,30.2268384 98.838305,30.2268384 C100.389536,30.2268384 101.685657,30.8392301 102.725296,32.0653834 C103.760822,33.2929068 104.280642,34.9067712 104.280642,36.9083467 L104.280642,36.9083467 Z M101.301621,37.015207 C101.301621,35.7356235 101.012222,34.6807206 100.433425,33.8504983 C99.8011378,32.984656 98.9548874,32.5517346 97.8891879,32.5517346 C97.1703494,32.5515052 96.4746093,32.8053181 95.9251188,33.2682467 C95.3380926,33.7477481 94.9554283,34.3738398 94.7757544,35.1492619 C94.6866032,35.5109429 94.6399703,35.8068637 94.6399703,36.0397644 L94.6399703,38.2317704 C94.6399703,39.188033 94.9334834,39.9949652 95.5177665,40.653937 C96.1047928,41.3115389 96.8673782,41.6417098 97.808266,41.6417098 C98.909626,41.6417098 99.7668489,41.2170086 100.379935,40.3703463 C100.994392,39.5223139 101.301621,38.4043909 101.301621,37.015207 Z M121.20565,38.5304312 C121.20565,40.0812755 120.666628,41.3430489 119.58447,42.3171216 C118.39533,43.3816145 116.739862,43.913176 114.612577,43.913176 C112.648508,43.913176 111.073961,43.535055 109.882079,42.7774429 L110.559628,40.3429462 C111.843405,41.1183683 113.251993,41.5074494 114.786765,41.5074494 C115.888125,41.5074494 116.745348,41.2581087 117.361177,40.7621673 C117.974263,40.266226 118.28012,39.6004042 118.28012,38.7701819 C118.28012,38.0303798 118.027753,37.4070281 117.521649,36.9014967 C117.018288,36.3959653 116.177523,35.926054 115.003471,35.4917629 C111.807744,34.3012296 110.211252,32.5572148 110.211252,30.2638285 C110.211252,28.7650444 110.770847,27.536151 111.891409,26.5798883 C113.007856,25.6222557 114.497367,25.1441244 116.35994,25.1441244 C118.020896,25.1441244 119.400681,25.4331952 120.502041,26.0099668 L119.771002,28.3910333 C118.742334,27.8320718 117.579254,27.552591 116.277647,27.552591 C115.24898,27.552591 114.445247,27.8060417 113.869194,28.3102031 C113.396469,28.7278989 113.129537,29.3306941 113.138154,29.9610576 C113.138154,30.6816796 113.41658,31.2776313 113.976175,31.7461726 C114.463078,32.1790937 115.347732,32.647635 116.631509,33.1531664 C118.201941,33.7847382 119.35542,34.5231702 120.097432,35.3698325 C120.836701,36.2137548 121.20565,37.2700277 121.20565,38.5304312 L121.20565,38.5304312 Z M130.873752,32.6887351 L127.650594,32.6887351 L127.650594,39.0715827 C127.650594,40.6950372 128.218419,41.5060794 129.356811,41.5060794 C129.879374,41.5060794 130.312786,41.4608693 130.655675,41.370449 L130.736597,43.5884851 C130.160543,43.8035757 129.402072,43.911806 128.462556,43.911806 C127.307705,43.911806 126.405221,43.559715 125.753732,42.8569031 C125.104985,42.1527212 124.778555,40.9717779 124.778555,39.3127034 L124.778555,32.6859951 L122.858376,32.6859951 L122.858376,30.4939891 L124.778555,30.4939891 L124.778555,28.0868925 L127.650594,27.2210501 L127.650594,30.4939891 L130.873752,30.4939891 L130.873752,32.6887351 L130.873752,32.6887351 Z M145.416367,36.9617769 C145.416367,38.9825325 144.83757,40.641607 143.682719,41.9390006 C142.471635,43.2747543 140.864171,43.9405761 138.860326,43.9405761 C136.929175,43.9405761 135.39166,43.3007843 134.245038,42.0212008 C133.098417,40.7416173 132.525106,39.1263828 132.525106,37.1796075 C132.525106,35.1424119 133.114876,33.4737473 134.298529,32.1763537 C135.479439,30.8775902 137.073188,30.2282084 139.077032,30.2282084 C141.008184,30.2282084 142.562158,30.8680001 143.734838,32.1489537 C144.856772,33.3915471 145.416367,34.9958215 145.416367,36.9617769 L145.416367,36.9617769 Z M142.382484,37.0563072 C142.382484,35.8438538 142.123259,34.804021 141.597953,33.9368086 C140.984868,32.8873857 140.108443,32.3640443 138.972794,32.3640443 C137.79737,32.3640443 136.904487,32.8887557 136.291401,33.9368086 C135.766095,34.805391 135.50687,35.8616639 135.50687,37.1111073 C135.50687,38.3235606 135.766095,39.3633935 136.291401,40.2292359 C136.923688,41.2786588 137.806971,41.8020002 138.946734,41.8020002 C140.063181,41.8020002 140.939606,41.2676987 141.571894,40.2018358 C142.110915,39.3181834 142.382484,38.2673905 142.382484,37.0563072 L142.382484,37.0563072 Z M154.921254,33.0654862 C154.617128,33.0105805 154.308619,32.9835248 153.999568,32.984656 C152.970901,32.984656 152.175398,33.372367 151.615803,34.1491592 C151.1289,34.834161 150.884763,35.7000034 150.884763,36.7453163 L150.884763,43.6432853 L147.961976,43.6432853 L147.989407,34.6368805 C147.989407,33.1216563 147.952375,31.7420625 147.879682,30.4980991 L150.426663,30.4980991 L150.533644,33.013426 L150.614566,33.013426 C150.923167,32.1489537 151.410069,31.4529917 152.076646,30.9310203 C152.686787,30.4749155 153.428128,30.2279214 154.190214,30.2268384 C154.460411,30.2268384 154.704548,30.2460184 154.921254,30.2802685 L154.921254,33.0654862 L154.921254,33.0654862 Z M167.999046,36.4480255 C168.006461,36.8920432 167.970632,37.335729 167.892065,37.7728191 L159.119589,37.7728191 C159.153878,39.0715827 159.577689,40.0648354 160.392393,40.7498373 C161.131662,41.362229 162.087637,41.6691098 163.26169,41.6691098 C164.560554,41.6691098 165.745579,41.4622393 166.811278,41.0471281 L167.269378,43.0747337 C166.024005,43.6172552 164.553696,43.8871459 162.85708,43.8871459 C160.816204,43.8871459 159.214226,43.2870843 158.048403,42.088331 C156.885323,40.8895777 156.302412,39.2798233 156.302412,37.2604377 C156.302412,35.2780423 156.844176,33.6271877 157.929078,32.3106141 C159.064726,30.9049902 160.599498,30.2021783 162.53065,30.2021783 C164.427513,30.2021783 165.863532,30.9049902 166.838709,32.3106141 C167.610896,33.4271672 167.999046,34.808131 167.999046,36.4480255 L167.999046,36.4480255 Z M165.210672,35.6904134 C165.229873,34.824571 165.039227,34.076549 164.642847,33.4449772 C164.136743,32.632565 163.35907,32.2270439 162.312572,32.2270439 C161.356598,32.2270439 160.578925,32.622975 159.985041,33.4175771 C159.498138,34.0491489 159.20874,34.806761 159.119589,35.6890434 L165.210672,35.6890434 L165.210672,35.6904134 Z M67.73003,14.1950543 C67.73003,15.8075487 67.2458706,17.0213721 66.2789232,17.8365243 C65.3832967,18.5886564 64.1104922,18.9654074 62.4618812,18.9654074 C61.6444334,18.9654074 60.9449396,18.9297873 60.3592849,18.8585471 L60.3592849,10.0480529 C61.1232419,9.92475254 61.9461759,9.86173237 62.8349446,9.86173237 C64.4053769,9.86173237 65.5890302,10.2028633 66.3872761,10.8851252 C67.281531,11.6564373 67.73003,12.7592903 67.73003,14.1950543 Z M66.21446,14.2347844 C66.21446,13.1894715 65.9374056,12.3880193 65.3832967,11.8290578 C64.8291878,11.2714662 64.0199695,10.9919855 62.95427,10.9919855 C62.5016563,10.9919855 62.1162489,11.0221256 61.7966762,11.0851457 L61.7966762,17.7830942 C61.973607,17.8104942 62.2972944,17.8228243 62.7677383,17.8228243 C63.8677267,17.8228243 64.7167202,17.5173134 65.3147189,16.9062917 C65.9127175,16.2952701 66.21446,15.4047676 66.21446,14.2347844 L66.21446,14.2347844 Z M75.7659801,15.6034182 C75.7659801,16.5966709 75.4820679,17.4104531 74.9142434,18.0488749 C74.3189879,18.7051067 73.5303428,19.0325376 72.5455652,19.0325376 C71.5964481,19.0325376 70.8407204,18.7188067 70.2770106,18.088605 C69.7146724,17.4597733 69.4335033,16.6665411 69.4335033,15.7102785 C69.4335033,14.7101757 69.7229018,13.8895434 70.3044417,13.2524917 C70.8859817,12.6154399 71.667769,12.2962291 72.6525466,12.2962291 C73.6016638,12.2962291 74.3642493,12.6099599 74.9416746,13.2387917 C75.4902972,13.8498133 75.7659801,14.6389355 75.7659801,15.6034182 L75.7659801,15.6034182 Z M74.2750981,15.6499983 C74.2750981,15.0540466 74.1461718,14.5430352 73.8896907,14.1169641 C73.5879482,13.6018427 73.158651,13.3442819 72.6004275,13.3442819 C72.0230022,13.3442819 71.584104,13.6018427 71.2823616,14.1169641 C71.024509,14.5430352 70.8969542,15.0622667 70.8969542,15.6760284 C70.8969542,16.27198 71.0258805,16.7829914 71.2823616,17.2090626 C71.5937049,17.724184 72.0271168,17.9817447 72.5867119,17.9817447 C73.1353345,17.9817447 73.5660033,17.720074 73.8759751,17.1953625 C74.1420571,16.7610713 74.2750981,16.2459499 74.2750981,15.6499983 Z M86.5409287,12.4277494 L84.5178827,18.8859472 L83.2011884,18.8859472 L82.3631673,16.0815495 C82.1543186,15.3953722 81.9808177,14.6989534 81.8433473,13.9950337 L81.8172878,13.9950337 C81.6932947,14.7018717 81.5195912,15.3991037 81.2974678,16.0815495 L80.4073276,18.8859472 L79.0755461,18.8859472 L77.1731971,12.4277494 L78.6503636,12.4277494 L79.3814033,15.4979279 C79.5583341,16.2240299 79.7037191,16.9158818 79.8203014,17.5707436 L79.8463609,17.5707436 C79.9533424,17.0309621 80.1302732,16.3432202 80.3798965,15.5116279 L81.2974678,12.4291194 L82.4687771,12.4291194 L83.3479449,15.4458677 C83.5605362,16.1815597 83.7333523,16.8898517 83.8663933,17.5721136 L83.9061685,17.5721136 C84.003549,16.9076617 84.1503055,16.1993698 84.3450666,15.4458677 L85.1295969,12.4291194 L86.5409287,12.4291194 L86.5409287,12.4277494 Z M93.9925956,18.8859472 L92.5552043,18.8859472 L92.5552043,15.186937 C92.5552043,14.0470939 92.1217924,13.4771723 91.2522255,13.4771723 C90.8520955,13.4654409 90.4689459,13.6388511 90.2139572,13.9470836 C89.950666,14.2553648 89.8087842,14.6488724 89.8148342,15.0540466 L89.8148342,18.8845772 L88.3774429,18.8845772 L88.3774429,14.2731445 C88.3774429,13.7059629 88.3596127,13.0908312 88.3253238,12.4250094 L89.5885274,12.4250094 L89.6557337,13.4347022 L89.6955088,13.4347022 C89.8628387,13.1209713 90.112462,12.8620406 90.440264,12.6551701 C90.8297861,12.4140494 91.2659411,12.2921191 91.7432428,12.2921191 C92.3467277,12.2921191 92.8487174,12.4866596 93.2478404,12.8771107 C93.7443439,13.355242 93.9925956,14.0690139 93.9925956,15.0170565 L93.9925956,18.8859472 L93.9925956,18.8859472 Z M97.9563942,18.8859472 L96.5203744,18.8859472 L96.5203744,9.46443128 L97.9563942,9.46443128 L97.9563942,18.8859472 L97.9563942,18.8859472 Z M106.418898,15.6034182 C106.418898,16.5966709 106.134986,17.4104531 105.567162,18.0488749 C104.971906,18.7051067 104.18189,19.0325376 103.198483,19.0325376 C102.247995,19.0325376 101.492267,18.7188067 100.929929,18.088605 C100.367591,17.4597733 100.086422,16.6665411 100.086422,15.7102785 C100.086422,14.7101757 100.37582,13.8895434 100.95736,13.2524917 C101.5389,12.6154399 102.320687,12.2962291 103.304093,12.2962291 C104.254582,12.2962291 105.015796,12.6099599 105.594593,13.2387917 C106.143215,13.8498133 106.418898,14.6389355 106.418898,15.6034182 Z M104.926645,15.6499983 C104.926645,15.0540466 104.797718,14.5430352 104.541237,14.1169641 C104.240866,13.6018427 103.810198,13.3442819 103.253346,13.3442819 C102.674549,13.3442819 102.235651,13.6018427 101.93528,14.1169641 C101.677427,14.5430352 101.549872,15.0622667 101.549872,15.6760284 C101.549872,16.27198 101.678799,16.7829914 101.93528,17.2090626 C102.246623,17.724184 102.680035,17.9817447 103.23963,17.9817447 C103.788253,17.9817447 104.21755,17.720074 104.527522,17.1953625 C104.794975,16.7610713 104.926645,16.2459499 104.926645,15.6499983 L104.926645,15.6499983 Z M113.375433,18.8859472 L112.084799,18.8859472 L111.977817,18.1420351 L111.938042,18.1420351 C111.496401,18.7352468 110.866856,19.0325376 110.049409,19.0325376 C109.439066,19.0325376 108.945306,18.8366271 108.573614,18.447546 C108.236361,18.0939207 108.054207,17.6205598 108.067509,17.1323424 C108.067509,16.3432202 108.396683,15.7417885 109.059145,15.3253074 C109.720235,14.9088262 110.65015,14.7046957 111.847519,14.7142857 L111.847519,14.5937254 C111.847519,13.742953 111.400392,13.3182519 110.504765,13.3182519 C109.866992,13.3182519 109.304653,13.4785423 108.819122,13.7963832 L108.526981,12.8538206 C109.127723,12.4825496 109.869735,12.2962291 110.744788,12.2962291 C112.434546,12.2962291 113.282167,13.1867315 113.282167,14.9677364 L113.282167,17.346063 C113.282167,17.9913347 113.313713,18.5050861 113.375433,18.8859472 L113.375433,18.8859472 Z M111.88318,16.6665411 L111.88318,15.6705483 C110.29766,15.6431483 109.504901,16.0774395 109.504901,16.9720519 C109.504901,17.3090728 109.595423,17.5611535 109.780584,17.729664 C109.973619,17.9005651 110.225034,17.9908149 110.48282,17.9817447 C110.798279,17.9817447 111.093163,17.8817344 111.361988,17.6830839 C111.693117,17.4509965 111.888166,17.0705678 111.88318,16.6665411 L111.88318,16.6665411 Z M121.543053,18.8859472 L120.267505,18.8859472 L120.200299,17.8488543 L120.160524,17.8488543 C119.753171,18.6379765 119.059164,19.0325376 118.083987,19.0325376 C117.304943,19.0325376 116.656197,18.7270267 116.141863,18.1160051 C115.627529,17.5049834 115.371048,16.7117512 115.371048,15.7376785 C115.371048,14.6923657 115.649474,13.8457033 116.209069,13.1990615 C116.750834,12.5962599 117.414668,12.2948591 118.204684,12.2948591 C119.072879,12.2948591 119.680479,12.5866699 120.026111,13.1716615 L120.053542,13.1716615 L120.053542,9.46443128 L121.492305,9.46443128 L121.492305,17.1460424 C121.492305,17.7748741 121.508764,18.3543857 121.543053,18.8859472 L121.543053,18.8859472 Z M120.053542,16.1623797 L120.053542,15.0855567 C120.080872,14.5822934 119.874419,14.0945442 119.493947,13.7635031 C119.228823,13.5301608 118.885779,13.4045364 118.532486,13.4114121 C117.996207,13.4114121 117.576511,13.6237627 117.267911,14.0498339 C116.962054,14.4759051 116.807068,15.0197966 116.807068,15.6842484 C116.807068,16.3226701 116.953824,16.8405316 117.248709,17.2392027 C117.560053,17.6639038 117.979749,17.8762544 118.505055,17.8762544 C118.97687,17.8762544 119.354049,17.6995239 119.640704,17.3446929 C119.917758,17.017262 120.053542,16.622701 120.053542,16.1623797 L120.053542,16.1623797 Z M133.836315,15.6034182 C133.836315,16.5966709 133.552402,17.4104531 132.984578,18.0488749 C132.389322,18.7051067 131.602049,19.0325376 130.6159,19.0325376 C129.668154,19.0325376 128.912426,18.7188067 128.347345,18.088605 C127.785007,17.4597733 127.503838,16.6665411 127.503838,15.7102785 C127.503838,14.7101757 127.793236,13.8895434 128.374776,13.2524917 C128.956316,12.6154399 129.738103,12.2962291 130.724253,12.2962291 C131.671998,12.2962291 132.435955,12.6099599 133.012009,13.2387917 C133.560632,13.8498133 133.836315,14.6389355 133.836315,15.6034182 L133.836315,15.6034182 Z M132.346804,15.6499983 C132.346804,15.0540466 132.217878,14.5430352 131.961397,14.1169641 C131.658283,13.6018427 131.230357,13.3442819 130.670762,13.3442819 C130.094708,13.3442819 129.65581,13.6018427 129.352696,14.1169641 C129.094843,14.5430352 128.967289,15.0622667 128.967289,15.6760284 C128.967289,16.27198 129.096215,16.7829914 129.352696,17.2090626 C129.664039,17.724184 130.097451,17.9817447 130.657046,17.9817447 C131.205669,17.9817447 131.637709,17.720074 131.947681,17.1953625 C132.212392,16.7610713 132.346804,16.2459499 132.346804,15.6499983 L132.346804,15.6499983 Z M141.565036,18.8859472 L140.129016,18.8859472 L140.129016,15.186937 C140.129016,14.0470939 139.695604,13.4771723 138.824666,13.4771723 C138.398112,13.4771723 138.053851,13.6333527 137.787769,13.9470836 C137.521687,14.2608145 137.388646,14.6307155 137.388646,15.0540466 L137.388646,18.8845772 L135.949883,18.8845772 L135.949883,14.2731445 C135.949883,13.7059629 135.933425,13.0908312 135.899136,12.4250094 L137.160968,12.4250094 L137.228174,13.4347022 L137.267949,13.4347022 C137.443953,13.1144724 137.700688,12.8457492 138.012704,12.6551701 C138.403598,12.4140494 138.838381,12.2921191 139.317055,12.2921191 C139.919168,12.2921191 140.421158,12.4866596 140.820281,12.8771107 C141.318156,13.355242 141.565036,14.0690139 141.565036,15.0170565 L141.565036,18.8859472 L141.565036,18.8859472 Z M151.238625,13.5032024 L149.655848,13.5032024 L149.655848,16.640511 C149.655848,17.4378532 149.937017,17.8365243 150.493869,17.8365243 C150.751722,17.8365243 150.965685,17.8146042 151.134386,17.7693941 L151.171418,18.8585471 C150.887506,18.9654074 150.514443,19.0188376 150.054971,19.0188376 C149.487147,19.0188376 149.045506,18.8462171 148.725933,18.5009761 C148.404989,18.1557352 148.245888,17.5748536 148.245888,16.7597013 L148.245888,13.5032024 L147.300886,13.5032024 L147.300886,12.4277494 L148.245888,12.4277494 L148.245888,11.2440662 L149.654477,10.819365 L149.654477,12.4263794 L151.237253,12.4263794 L151.237253,13.5032024 L151.238625,13.5032024 Z M158.848021,18.8859472 L157.409258,18.8859472 L157.409258,15.2143371 C157.409258,14.0566839 156.975846,13.4771723 156.10765,13.4771723 C155.441074,13.4771723 154.985717,13.8128232 154.736094,14.4841251 C154.688802,14.6521361 154.666164,14.8261121 154.668888,15.0006165 L154.668888,18.8845772 L153.232868,18.8845772 L153.232868,9.46443128 L154.668888,9.46443128 L154.668888,13.356612 L154.696319,13.356612 C155.148932,12.64832 155.797679,12.2948591 156.638443,12.2948591 C157.233698,12.2948591 157.726087,12.4893996 158.116981,12.8798507 C158.603883,13.366202 158.848021,14.089564 158.848021,15.0458266 L158.848021,18.8859472 L158.848021,18.8859472 Z M166.697439,15.3513375 C166.697439,15.6088982 166.678237,15.8253588 166.643948,16.0020893 L162.333146,16.0020893 C162.352348,16.640511 162.558081,17.1268623 162.957204,17.4638833 C163.322038,17.7652841 163.792482,17.9159845 164.368536,17.9159845 C165.00631,17.9159845 165.58785,17.8146042 166.111784,17.6104737 L166.33672,18.6078364 C165.723634,18.8736172 165.002195,19.0065075 164.166917,19.0065075 C163.165681,19.0065075 162.377036,18.7119567 161.806468,18.1228551 C161.233157,17.5337535 160.949245,16.7432613 160.949245,15.7513786 C160.949245,14.7773059 161.213956,13.9662637 161.747491,13.3196219 C162.304343,12.62914 163.057328,12.283899 164.007816,12.283899 C164.937732,12.283899 165.644083,12.62914 166.121385,13.3196219 C166.506793,13.8676234 166.697439,14.5457753 166.697439,15.3513375 Z M165.325882,14.9800664 C165.345895,14.5928774 165.248886,14.2086235 165.047456,13.8772134 C164.797833,13.4785423 164.417912,13.2785218 163.903578,13.2785218 C163.448478,13.2707751 163.019468,13.4901756 162.7597,13.8635134 C162.515827,14.1885561 162.368052,14.5753731 162.333146,14.9800664 L165.325882,14.9800664 L165.325882,14.9800664 Z" id="Shape" fill="#FFFFFF"></path>
            </g>
        </g>
    </g>
</svg>