<svg width="42px" height="42px" viewBox="0 0 42 42" version="1.1" xmlns="http://www.w3.org/2000/svg" xmlns:xlink="http://www.w3.org/1999/xlink">
    <g id="WordPress" stroke="none" stroke-width="1" fill="none" fill-rule="evenodd">
        <g id="Details" transform="translate(-255, -27)">
            <g id="Logo" transform="translate(255, 27)">
                <rect id="BG" fill="#FFFFFF" x="0" y="0" width="42" height="42"></rect>
                <g id="Text" transform="translate(1.8173, 2.0192)" fill="#000000">
                    <polygon id="M" points="20.1923077 19.7884615 27.2596154 19.7884615 27.2596154 25.4423077 29.0769231 27.8653846 30.8942308 25.4423077 30.8942308 19.7884615 38.3653846 19.7884615 38.3653846 37.9615385 30.8942308 37.9615385 30.8942308 32.3076923 29.0769231 34.7307692 27.2596154 32.3076923 27.2596154 37.9615385 20.1923077 37.9615385"></polygon>
                    <path d="M18.375,19.7884615 L18.375,37.9615385 L11.3076923,37.9615385 L11.3076923,32.2441659 L7.47115385,32.2441659 L7.47115385,37.9615385 L0,37.9615385 L0,19.7884615 L18.375,19.7884615 Z M11.3076923,23.8269231 L7.47115385,23.8269231 L7.47115385,29.4807692 L11.3076923,29.4807692 L11.3076923,23.8269231 Z" id="A2"></path>
                    <polygon id="H" points="20.1923077 0 27.2596154 0 27.2596154 5.65384615 30.8942308 5.65384615 30.8942308 0 38.3653846 0 38.3653846 17.9711538 30.8942308 17.9711538 30.8942308 13.125 27.2596154 13.125 27.2596154 17.9711538 20.1923077 17.9711538"></polygon>
                    <path d="M18.375,0 L18.375,17.9711538 L11.3076923,17.9711538 L11.3076923,12.3173077 L7.47115385,12.3173077 L7.47115385,17.9711538 L0,17.9711538 L0,0 L18.375,0 Z M11.3076923,4.03846154 L7.47115385,4.03846154 L7.47115385,9.69230769 L11.3076923,9.69230769 L11.3076923,4.03846154 Z" id="A1"></path>
                </g>
            </g>
        </g>
    </g>
</svg>