<svg width="14px" height="14px" viewBox="0 0 14 14" version="1.1" xmlns="http://www.w3.org/2000/svg" xmlns:xlink="http://www.w3.org/1999/xlink">
    <g id="Common" stroke="none" stroke-width="1" fill="none" fill-rule="evenodd">
        <g id="Email" transform="translate(-647, -511)" fill="#000000" fill-rule="nonzero">
            <g id="icons8-facebook" transform="translate(647, 511)">
                <path d="M12.3333333,0 L1.66666667,0 C0.746666667,0 0,0.746666667 0,1.66666667 L0,12.3333333 C0,13.2533333 0.746666667,14 1.66666667,14 L12.3333333,14 C13.2533333,14 14,13.2533333 14,12.3333333 L14,1.66666667 C14,0.746666667 13.2533333,0 12.3333333,0 Z M11,5 L10.3333333,5 C9.62,5 9.33333333,5.16666667 9.33333333,5.66666667 L9.33333333,6.66666667 L11,6.66666667 L10.6666667,8.33333333 L9.33333333,8.33333333 L9.33333333,13.3333333 L7.66666667,13.3333333 L7.66666667,8.33333333 L6.33333333,8.33333333 L6.33333333,6.66666667 L7.66666667,6.66666667 L7.66666667,5.66666667 C7.66666667,4.33333333 8.33333333,3.33333333 9.66666667,3.33333333 C10.6333333,3.33333333 11,3.66666667 11,3.66666667 L11,5 Z" id="Shape"></path>
            </g>
        </g>
    </g>
</svg>