<svg width="14px" height="14px" viewBox="0 0 14 14" version="1.1" xmlns="http://www.w3.org/2000/svg" xmlns:xlink="http://www.w3.org/1999/xlink">
    <g id="Common" stroke="none" stroke-width="1" fill="none" fill-rule="evenodd">
        <g id="Email" transform="translate(-667, -511)" fill="#000000" fill-rule="nonzero">
            <g id="icons8-instagram" transform="translate(667, 511)">
                <path d="M4.13636364,0 C1.855,0 0,1.855 0,4.13636364 L0,9.86363636 C0,12.145 1.855,14 4.13636364,14 L9.86363636,14 C12.145,14 14,12.145 14,9.86363636 L14,4.13636364 C14,1.855 12.145,0 9.86363636,0 L4.13636364,0 Z M10.8181818,2.54545455 C11.1681818,2.54545455 11.4545455,2.83181818 11.4545455,3.18181818 C11.4545455,3.53181818 11.1681818,3.81818182 10.8181818,3.81818182 C10.4681818,3.81818182 10.1818182,3.53181818 10.1818182,3.18181818 C10.1818182,2.83181818 10.4681818,2.54545455 10.8181818,2.54545455 Z M7,3.5 C8.93136364,3.5 10.5,5.06863636 10.5,7 C10.5,8.93136364 8.93136364,10.5 7,10.5 C5.06863636,10.5 3.5,8.93136364 3.5,7 C3.5,5.06863636 5.06863636,3.5 7,3.5 Z M7,4.13636364 C5.42181818,4.13636364 4.13636364,5.42181818 4.13636364,7 C4.13636364,8.57818182 5.42181818,9.86363636 7,9.86363636 C8.57818182,9.86363636 9.86363636,8.57818182 9.86363636,7 C9.86363636,5.42181818 8.57818182,4.13636364 7,4.13636364 Z" id="Shape"></path>
            </g>
        </g>
    </g>
</svg>