<svg width="14px" height="14px" viewBox="0 0 14 14" version="1.1" xmlns="http://www.w3.org/2000/svg" xmlns:xlink="http://www.w3.org/1999/xlink">
    <g id="Common" stroke="none" stroke-width="1" fill="none" fill-rule="evenodd">
        <g id="Email" transform="translate(-687, -511)" fill="#000000" fill-rule="nonzero">
            <g id="icons8-pinterest" transform="translate(687, 511)">
                <path d="M7,0 C3.14022164,0 0,3.14022164 0,7 C0,10.0082212 1.90752377,12.5787751 4.57628865,13.5669025 C4.4994215,12.8816369 4.51147727,11.7593729 4.63831364,11.2160087 C4.75708806,10.7056168 5.40564762,7.96340279 5.40564762,7.96340279 C5.40564762,7.96340279 5.20985747,7.57130232 5.20985747,6.9921981 C5.20985747,6.08214536 5.7371163,5.40313985 6.39371923,5.40313985 C6.95218559,5.40313985 7.22148067,5.82241687 7.22148067,6.32476539 C7.22148067,6.88650112 6.86434009,7.72557529 6.6793611,8.50323749 C6.5250881,9.15482494 7.0060372,9.68609615 7.64829952,9.68609615 C8.81128196,9.68609615 9.7052294,8.45969551 9.7052294,6.68968927 C9.7052294,5.12303357 8.57975175,4.02750028 6.97232191,4.02750028 C5.11069921,4.02750028 4.01793374,5.42401915 4.01793374,6.86736793 C4.01793374,7.42960522 4.23438032,8.03261663 4.50492,8.36079735 C4.55827004,8.42572019 4.56607191,8.48235817 4.55022665,8.54828407 C4.50064753,8.75490399 4.39041805,9.19936996 4.36851703,9.29046626 C4.3400773,9.4105224 4.27363123,9.43543273 4.14980419,9.37779165 C3.33238953,8.99726398 2.82147749,7.80259103 2.82147749,6.8426991 C2.82147749,4.77874752 4.32094408,2.88288943 7.14520797,2.88288943 C9.4152965,2.88288943 11.1792656,4.50014594 11.1792656,6.66225265 C11.1792656,8.91748045 9.75707478,10.7322918 7.78369937,10.7322918 C7.12055771,10.7322918 6.49740998,10.3877643 6.28425134,9.98080309 C6.28425134,9.98080309 5.95607061,11.2301078 5.87628705,11.5363876 C5.73858378,12.0660798 5.1491142,13.1634336 4.85319983,13.6618626 C5.53014341,13.8805383 6.25124193,14 7,14 C10.859927,14 14,10.859927 14,7 C14,3.14022164 10.859927,0 7,0 Z" id="Path"></path>
            </g>
        </g>
    </g>
</svg>