<svg width="14px" height="14px" viewBox="0 0 14 14" version="1.1" xmlns="http://www.w3.org/2000/svg" xmlns:xlink="http://www.w3.org/1999/xlink">
    <g id="Common" stroke="none" stroke-width="1" fill="none" fill-rule="evenodd">
        <g id="Email" transform="translate(-627, -511)" fill="#000000" fill-rule="nonzero">
            <g id="icons8-x" transform="translate(627, 511)">
                <path d="M2.33333333,0 C1.04466667,0 0,1.04466667 0,2.33333333 L0,11.6666667 C0,12.9553333 1.04466667,14 2.33333333,14 L11.6666667,14 C12.9553333,14 14,12.9553333 14,11.6666667 L14,2.33333333 C14,1.04466667 12.9553333,0 11.6666667,0 L2.33333333,0 Z M3.028646,3 L5.67447933,3 L7.55338533,5.669922 L9.83333333,3 L10.6666667,3 L7.92968733,6.204427 L11.3046873,11 L8.65950533,11 L6.47916667,7.90234367 L3.83333333,11 L3,11 L6.10286467,7.36783867 L3.028646,3 Z M4.30468733,3.66666667 L9.00716133,10.3333333 L10.028646,10.3333333 L5.326172,3.66666667 L4.30468733,3.66666667 Z" id="Shape"></path>
            </g>
        </g>
    </g>
</svg>